<?xml version="1.0" standalone="no"?>
<!DOCTYPE svg PUBLIC "-//W3C//DTD SVG 20010904//EN"
 "http://www.w3.org/TR/2001/REC-SVG-20010904/DTD/svg10.dtd">
<svg version="1.0" xmlns="http://www.w3.org/2000/svg"
 width="700.000000pt" height="700.000000pt" viewBox="0 0 700.000000 700.000000"
 preserveAspectRatio="xMidYMid meet">
<metadata>
Created by potrace 1.14, written by Peter Selinger 2001-2017
</metadata>
<g transform="translate(0.000000,700.000000) scale(0.100000,-0.100000)"
fill="#000000" stroke="none">
<path d="M3257 6964 c-1 -1 -63 -4 -137 -8 -150 -7 -161 -8 -309 -37 -518
-103 -1032 -430 -1402 -894 -258 -324 -421 -614 -580 -1035 -32 -84 -106 -323
-124 -400 -2 -8 -9 -37 -15 -65 -13 -56 -12 -53 -40 -190 -24 -123 -37 -208
-46 -300 -3 -38 -8 -79 -10 -89 -24 -128 -24 -759 1 -888 2 -10 7 -51 10 -91
5 -64 10 -98 30 -212 5 -32 43 -217 50 -250 3 -11 7 -29 9 -40 32 -143 98
-356 158 -505 72 -184 75 -191 165 -370 370 -741 993 -1293 1659 -1470 243
-64 347 -73 854 -74 399 0 502 8 689 50 477 108 915 378 1281 789 203 228 360
468 511 780 151 313 288 730 333 1019 4 21 8 48 11 60 5 23 11 64 26 176 5 41
12 89 14 106 25 180 26 792 1 934 -3 14 -7 50 -10 80 -24 247 -98 576 -188
845 -291 866 -834 1536 -1507 1862 -89 43 -281 119 -319 127 -9 1 -24 6 -32 9
-17 6 -102 27 -137 33 -13 2 -35 6 -50 9 -16 3 -44 8 -63 10 -19 3 -44 7 -55
9 -44 10 -255 18 -508 20 -148 0 -269 0 -270 0z"/>
</g>
</svg>
